<?xml version="1.0" encoding="UTF-8"?><svg id="Layer_2" xmlns="http://www.w3.org/2000/svg" viewBox="0 0 305.29 111.96"><defs><style>.cls-1{fill:#f1a41f;}.cls-2{fill:#77c047;}.cls-3{fill:none;stroke:#231f20;stroke-miterlimit:10;stroke-width:2px;}.cls-4{fill:#d90f7f;}.cls-5{fill:#231f20;font-family:Consolas, Consolas;font-size:39.98px;}.cls-6{fill:#4fc4ca;}.cls-7{fill:#f36f24;}</style></defs><g id="Layer_1-2"><line class="cls-3" x1="35.22" y1="106.35" x2="172.46" y2="106.35"/><line class="cls-3" x1="42.72" y1="90.14" x2="199.73" y2="90.14"/><line class="cls-3" x1="42.72" y1="73.93" x2="253.3" y2="73.93"/><line class="cls-3" x1="42.72" y1="57.71" x2="225.64" y2="57.71"/><g><rect class="cls-1" x="0" y="68.31" width="70.65" height="11.23" rx="5.61" ry="5.61"/><rect class="cls-1" x="87.51" y="68.31" width="52.43" height="11.23" rx="5.61" ry="5.61"/><rect class="cls-1" x="159.12" y="68.31" width="22.55" height="11.23" rx="5.61" ry="5.61"/><rect class="cls-1" x="198.99" y="68.31" width="106.31" height="11.23" rx="5.61" ry="5.61"/></g><g><rect class="cls-6" x="0" width="70.65" height="46.13" rx="6.81" ry="6.81"/><rect class="cls-6" x="87.51" width="202.87" height="46.13" rx="6.84" ry="6.84"/></g><text class="cls-5" transform="translate(2.12 33.06)"><tspan x="0" y="0">RNA–pysoforms</tspan></text><g><rect class="cls-2" x="0" y="52.1" width="70.65" height="11.23" rx="5.61" ry="5.61"/><rect class="cls-2" x="87.51" y="52.1" width="52.43" height="11.23" rx="5.61" ry="5.61"/><rect class="cls-2" x="159.12" y="52.1" width="131.25" height="11.23" rx="5.61" ry="5.61"/></g><g><rect class="cls-7" x="0" y="84.52" width="70.65" height="11.23" rx="5.61" ry="5.61"/><rect class="cls-7" x="87.51" y="84.52" width="52.43" height="11.23" rx="5.61" ry="5.61"/><rect class="cls-7" x="159.12" y="84.52" width="81.21" height="11.23" rx="5.61" ry="5.61"/></g><g><rect class="cls-4" x="0" y="100.74" width="70.65" height="11.23" rx="5.61" ry="5.61"/><rect class="cls-4" x="87.51" y="100.74" width="52.43" height="11.23" rx="5.61" ry="5.61"/><rect class="cls-4" x="159.12" y="100.74" width="22.55" height="11.23" rx="5.61" ry="5.61"/></g></g></svg>